<svg xmlns="http://www.w3.org/2000/svg" width="38" height="42.222" viewBox="0 0 38 42.222">
  <defs>
    <style>
      .cls-1 {
        fill: #f76c1b;
      }
    </style>
  </defs>
  <g id="警报_2_" data-name="警报 (2)" transform="translate(-74.484 -20.563)">
    <path id="路径_60" data-name="路径 60" class="cls-1" d="M109.009,45.549a9.211,9.211,0,0,0,1.3,1.166c1.126.915,3.293,2.664,1.474,5.913a1.835,1.835,0,0,1-1.647.915H76.779a1.835,1.835,0,0,1-1.647-.915c-1.906-3.249.954-5.581,1.474-6a5.441,5.441,0,0,0,1.213-1.25c.867-1.333,1.213-4.415,1.387-6.331v-.832a21.336,21.336,0,0,1,3.985-10,12.836,12.836,0,0,1,6.673-4.58,3.588,3.588,0,0,1,7.1,0,12.826,12.826,0,0,1,6.673,4.58,22.26,22.26,0,0,1,3.985,10v1c.174,1.914.521,5,1.387,6.331ZM91.491,27.358a2.48,2.48,0,0,0-.425,0l-.005-.045c-.453.059-.907.087-1.352.184a7.761,7.761,0,0,0-5.616,6.366,1.132,1.132,0,0,0,0,.423.754.754,0,0,0,1.508-.01c.018-.1.018-.2.038-.3a6.736,6.736,0,0,1,1.249-2.678,5.227,5.227,0,0,1,3.684-2.141c.284-.028.568-.012.853-.03a.827.827,0,0,0,.724-.841.852.852,0,0,0-.654-.924Z" transform="translate(0)"/>
    <path id="路径_61" data-name="路径 61" class="cls-1" d="M384.6,23.734a3.715,3.715,0,0,1,7.348.071,12.8,12.8,0,0,0-7.348-.071Zm7.974,33.42h-8.612a1.235,1.235,0,0,0-.9.339,1.056,1.056,0,0,0-.268.93,5.482,5.482,0,0,0,10.765-.085,1.467,1.467,0,0,0-.27-.93,1.021,1.021,0,0,0-.718-.255Z" transform="translate(-294.845 -0.038)"/>
  </g>
</svg>
