<svg xmlns="http://www.w3.org/2000/svg" width="26.02" height="26" viewBox="0 0 26.02 26">
  <defs>
    <style>
      .cls-1 {
        fill: #fff;
        stroke: #fff;
        stroke-linecap: round;
        stroke-linejoin: round;
      }
    </style>
  </defs>
  <g id="地图" transform="translate(0.514 0.5)">
    <path id="路径_263" data-name="路径 263" class="cls-1" d="M178.217,20.411a.978.978,0,0,0,1.456,0l.749-.836c2.9-3.212,6.933-7.408,6.933-11.383a8.354,8.354,0,0,0-16.705,0c0,3.893,3.834,8.032,6.671,11.209.323.35.625.69.9,1.006Zm.788-19.221a7.042,7.042,0,0,1,4.929,2,6.773,6.773,0,0,1,2.04,4.837c0,4.684-4.936,8.54-6.962,11.13-2.042-2.473-6.978-6.472-6.978-11.135a6.908,6.908,0,0,1,6.972-6.835h0Z" transform="translate(-166.507)"/>
    <path id="路径_264" data-name="路径 264" class="cls-1" d="M24.94,190.594l-3.17-7.461a.63.63,0,0,0-.575-.387H18.852a.653.653,0,0,0,0,1.3h1.942l2.612,6.165H1.641l2.886-6.165h1.64a.653.653,0,0,0,0-1.3H4.13a.637.637,0,0,0-.571.368l-3.5,7.461a.653.653,0,0,0,.03.628.627.627,0,0,0,.531.3H24.37a.609.609,0,0,0,.522-.285.67.67,0,0,0,.05-.624h0Zm-9.224-16.682a3.17,3.17,0,1,0-3.167,3.261A3.218,3.218,0,0,0,15.716,173.912Zm-3.167,1.964a1.9,1.9,0,0,1-1.655-.986,2.017,2.017,0,0,1,0-1.968,1.907,1.907,0,0,1,1.657-.982,1.969,1.969,0,0,1-.005,3.936Z" transform="translate(0 -166.504)"/>
  </g>
</svg>
